<svg xmlns="http://www.w3.org/2000/svg" xml:space="preserve" width="124" height="65" viewBox="0 0 124.3 65">
  <path d="m79.2 42.3-1.9-7.6s0-.1-.1-.1c0 0-.1 0-.1-.1l-13.2-2.1h-.1l-13.7 1.2H50l-12.2 8.1-13.1 4.9-14.4 4.8h-.1l-7.9 7.4v.4l.5.6h.4l7.7-7.2h.1l14.2-4.7 3.9-1.4h.1s.1 0 .1.1v.1s0 .1-.1.1L21 55.1v.4l.5.5h.4l10.5-10.8 6-2.2 12.1-8h.1l13.2-1.1h.1l12.3 1.9s.1 0 .1.1l.1.1 1.6 6.5v.1l-5.5 22.2v.2l.1.1h.1l.7.2h.2l.1-.1 5.5-22.4v-.5z"/>
  <path d="m123.9 7.7-9-3.6h-.1l-3.5-4h-.2l-8.7.1h-.2l-3.6 3.9s-.1 0-.1.1l-1 .2-17.9 5.4-16.3 6.7h-.1l-26.3 1.7h-.1l-22.6 7.4h-.1L.5 25H.4l-.1.1v.2L3 28.8s.1 0 .1.1l13.2 3.4h.1l12-5.3h.2l.8.5V27.8l-4.8 7.1-2.2 6.9v.1h-.1l-13 3.4s-.1 0-.1.1l-5.5 6.5v.4l.7.5h.1s.1 0 .1-.1l5.2-6.2.1-.1 13.3-3.5h.1v-.1l2.3-7.3 5.4-8.1V27.1l-2.4-1.4h-.2L16.3 31h-.1L3.8 27.8s-.1 0-.1-.1l-.9-1.2v-.2l.1-.1H3l11.5.5h.1l22.6-7.5 26.4-1.7h.1L80 10.9l16.8-5.1h.1s.1 0 .1.1v.2l-1.1 1.3v.4l.6.6h.2l2.7-2.9h.1l4.9-1.1h.1s.1 0 .1.1l2.8 4.6 1.7 8v.1l-2.4 4.3-.1.1h-.1L98 17.2h-.1v-.1l-1.5-6.4s0-.1-.1-.1h-.1l-.8.2h-.1v.2l1.6 7v.1h.1l1.7.9.1.1v.2l-.1.1-3.2 2.3v.1L89.7 31l-4 4.2v.1l-7.5 22.2v.1l.1.1.7.3h.1l.1-.1 5-14.7s0-.1.1-.1l4.5-2.2V40.6l-1.4-2.8-.1-.1h-.1l-.8.4h-.1V38.4l.8 1.7V40.4l-2.1 1h-.2v-.2l1.8-5.3v-.1l3.1-3.2H90v.1l3.2 9.5v.1s0 .1-.1.1l-8.5 3.8h-.1V46.5l.4.8s0 .1.1.1h.1l9.4-4.3s.1 0 .1-.1v-.1l-3.8-11.4v-.2l5.3-9.3v-.1l3.6-2.6h.2l6.8 3.5h.1s.1 0 .1-.1l3.2-5.7v-.1l-.2-.9v-.2h.2l1.7-.1 6 .6h.1l.1-.1 2.1-3.6 3.8-4.7v-.2c0 .1 0 .1 0 0 0 .1 0 .1 0 0zm-1.9.8-2.8 3.5-1.8 3.1-.1.1h-.1l-5.3-.5-2.1.1h-.1s0-.1-.1-.1l-1.3-6.1v-.2L105 2.9l-.1-.1h-.1l-3.7.8h-.1s-.1 0-.1-.1v-.2l1.9-2h.2l7.7-.1h.2l3.3 3.8h.1l7.8 3.1h.1v.1c-.1.2-.1.2-.2.3z"/>
  <path d="M51.1 36.1 27.3 54c-.1.1-.1.2 0 .4l.4.5c.1.1.2.1.4.1l23.7-18c.1-.1.1-.2 0-.4l-.4-.5c0-.1-.2-.1-.3 0z"/>
</svg>
